<svg width="613" height="503" viewBox="0 0 613 503" fill="none" xmlns="http://www.w3.org/2000/svg">
<circle cx="216.5" cy="216.5" r="216.5" fill="#FAD4D4"/>
<mask id="path-2-inside-1_621_494" fill="white">
<rect x="220.371" y="173.719" width="361.683" height="328.802" rx="5"/>
</mask>
<rect x="220.371" y="173.719" width="361.683" height="328.802" rx="5" fill="#CEEAF0" stroke="black" stroke-width="12" mask="url(#path-2-inside-1_621_494)"/>
<path d="M338.358 387.539H467.935C474.915 387.539 481.185 391.805 483.748 398.297L514.53 476.279C518.934 487.435 510.712 499.521 498.718 499.521H307.575C295.581 499.521 287.359 487.435 291.763 476.279L322.545 398.297C325.108 391.805 331.378 387.539 338.358 387.539Z" fill="#FAD4D4" stroke="black" stroke-width="6"/>
<path fill-rule="evenodd" clip-rule="evenodd" d="M394.362 431.378C398.294 431.378 401.481 428.191 401.481 424.259C401.481 420.326 398.294 417.139 394.362 417.139C390.429 417.139 387.242 420.326 387.242 424.259C387.242 428.191 390.429 431.378 394.362 431.378ZM381.547 442.769C385.479 442.769 388.666 439.582 388.666 435.65C388.666 431.717 385.479 428.53 381.547 428.53C377.615 428.53 374.428 431.717 374.428 435.65C374.428 439.582 377.615 442.769 381.547 442.769ZM411.446 431.38C415.378 431.38 418.565 428.193 418.565 424.261C418.565 420.329 415.378 417.142 411.446 417.142C407.514 417.142 404.327 420.329 404.327 424.261C404.327 428.193 407.514 431.38 411.446 431.38ZM424.258 442.769C428.191 442.769 431.378 439.582 431.378 435.65C431.378 431.717 428.191 428.53 424.258 428.53C420.326 428.53 417.139 431.717 417.139 435.65C417.139 439.582 420.326 442.769 424.258 442.769ZM416.243 448.719C416.013 448.447 415.785 448.178 415.557 447.91L415.562 447.908L415.491 447.825C414.043 446.119 412.632 444.458 411.052 442.625C409.741 441.088 408.061 439.551 406.069 438.867C405.755 438.752 405.442 438.667 405.128 438.61C404.416 438.497 403.648 438.497 402.907 438.497H402.907H402.907C402.167 438.497 401.399 438.497 400.658 438.639C400.345 438.695 400.031 438.782 399.718 438.896C397.723 439.579 396.073 441.116 394.734 442.653C394.078 443.422 393.452 444.16 392.838 444.883C392.618 445.143 392.399 445.4 392.181 445.657L392.111 445.739C390.663 447.445 389.252 449.107 387.672 450.94C387.559 451.051 387.446 451.163 387.332 451.277C387.22 451.389 387.106 451.501 386.993 451.614L386.99 451.617C383.41 455.171 379.407 459.145 380.21 464.577C381.036 467.481 383.115 470.357 386.844 471.182C387.811 471.383 389.76 471.126 392.28 470.793C395.182 470.411 398.841 469.931 402.62 469.931H403.131C406.938 469.931 410.621 470.41 413.533 470.79L413.544 470.791L413.604 470.799C416.059 471.118 417.957 471.365 418.907 471.182C422.636 470.357 424.715 467.453 425.541 464.577C426.37 459.115 422.365 455.138 418.782 451.581L418.781 451.58C418.555 451.356 418.329 451.132 418.108 450.911C417.464 450.157 416.848 449.431 416.243 448.719Z" fill="white"/>
<path d="M262.28 51H540.146C543.858 51 547.19 53.2795 548.535 56.7398L603.851 199.075C606.144 204.975 601.792 211.335 595.462 211.335H206.963C200.634 211.335 196.282 204.975 198.574 199.075L253.891 56.7398C255.236 53.2795 258.567 51 262.28 51Z" fill="#FFF6E3" stroke="black" stroke-width="6"/>
</svg>
