<svg width="350" height="350" viewBox="0 0 350 350" fill="none" xmlns="http://www.w3.org/2000/svg">
<path d="M321.633 0H28.3672C12.7004 0 0 12.7004 0 28.3672V321.633C0 337.3 12.7004 350 28.3672 350H321.633C337.3 350 350 337.3 350 321.633V28.3672C350 12.7004 337.3 0 321.633 0Z" fill="#FAD4D4"/>
<path fill-rule="evenodd" clip-rule="evenodd" d="M142.357 126.008C157.383 126.008 169.562 113.829 169.562 98.8032C169.562 83.7773 157.383 71.5981 142.357 71.5981C127.331 71.5981 115.152 83.7773 115.152 98.8032C115.152 113.829 127.331 126.008 142.357 126.008ZM93.3882 169.536C108.414 169.536 120.593 157.357 120.593 142.331C120.593 127.306 108.414 115.126 93.3882 115.126C78.3623 115.126 66.1831 127.306 66.1831 142.331C66.1831 157.357 78.3623 169.536 93.3882 169.536ZM207.64 126.017C222.666 126.017 234.845 113.838 234.845 98.8122C234.845 83.7863 222.666 71.6071 207.64 71.6071C192.614 71.6071 180.435 83.7863 180.435 98.8122C180.435 113.838 192.614 126.017 207.64 126.017ZM256.6 169.536C271.626 169.536 283.805 157.357 283.805 142.331C283.805 127.306 271.626 115.126 256.6 115.126C241.574 115.126 229.395 127.306 229.395 142.331C229.395 157.357 241.574 169.536 256.6 169.536ZM225.973 192.271C225.094 191.235 224.221 190.207 223.352 189.184L223.37 189.175L223.099 188.856C217.564 182.338 212.173 175.989 206.137 168.987C201.128 163.114 194.705 157.24 187.093 154.628C185.895 154.186 184.697 153.862 183.499 153.646C180.779 153.213 177.842 153.213 175.013 153.213H175.013H175.013C172.185 153.213 169.248 153.213 166.419 153.754C165.221 153.97 164.023 154.303 162.825 154.736C155.204 157.348 148.898 163.222 143.781 169.095C141.275 172.033 138.881 174.853 136.534 177.617C135.693 178.608 134.858 179.592 134.025 180.572L133.756 180.889C128.22 187.408 122.829 193.756 116.792 200.759C116.362 201.185 115.93 201.615 115.495 202.048C115.065 202.476 114.633 202.906 114.198 203.336L114.187 203.346C100.506 216.928 85.2102 232.114 88.2812 252.872C91.4341 263.971 99.3794 274.961 113.631 278.114C117.324 278.879 124.774 277.897 134.404 276.627C145.493 275.168 159.474 273.33 173.914 273.33H175.869C190.416 273.33 204.488 275.163 215.615 276.613L215.659 276.618L215.887 276.648C225.271 277.868 232.525 278.811 236.153 278.114C250.404 274.961 258.349 263.863 261.502 252.872C264.673 232 249.368 216.803 235.675 203.21C234.81 202.354 233.946 201.498 233.099 200.651C230.639 197.767 228.283 194.992 225.973 192.271Z" fill="white"/>
</svg>
