<svg width="123" height="286" viewBox="0 0 123 286" fill="none" xmlns="http://www.w3.org/2000/svg">
<path d="M97.405 229.569L73.9678 49.4372C84.3878 45.8731 91.1978 35.2803 89.7078 23.8287C88.0092 10.7736 76.1551 1.55645 63.2271 3.23853C55.1377 4.29105 48.5498 9.35957 45.1686 16.2064C40.1479 10.4528 32.4824 7.23876 24.393 8.29128C11.4791 9.98435 2.37827 21.928 4.07688 34.9831C5.56522 46.4221 14.859 54.9195 25.8457 55.7113L49.2829 235.844C38.863 239.408 32.053 250 33.543 261.452C35.2416 274.507 47.0957 283.724 60.0237 282.042C68.1131 280.99 74.7009 275.921 78.0822 269.074C83.1029 274.828 90.7684 278.042 98.8578 276.989C111.786 275.307 120.887 263.364 119.188 250.309C117.7 238.87 108.406 230.372 97.4192 229.58L97.405 229.569Z" fill="white" stroke="black" stroke-width="6" stroke-linecap="round" stroke-linejoin="round"/>
</svg>
